<svg aria-hidden="true" style="position:absolute;width:0;height:0;overflow:hidden" xmlns="http://www.w3.org/2000/svg">
  <defs>
    <symbol id="icon-user" viewBox="0 0 32 32">
      <path fill="#2ca9bc" style="fill:var(--color1, #2ca9bc)" d="M16 1.6C8.052 1.606 1.61 8.051 1.61 16a14.35 14.35 0 0 0 4.073 10.035l-.003-.003c1.287-2.976 3.741-5.241 6.769-6.249l.079-.023C10.755 18.602 9.6 16.628 9.6 14.384c0-3.535 2.865-6.4 6.4-6.4a6.4 6.4 0 0 1 3.496 11.761l-.024.015c3.107 1.031 5.561 3.296 6.82 6.2l.028.072A14.352 14.352 0 0 0 30.39 16c0-7.949-6.441-14.394-14.389-14.4H16z"/>
    </symbol>
    <symbol id="icon-setting" viewBox="0 0 32 32">
      <path fill="#555" style="fill:var(--color2, #555)" d="M17.725 0c.471 0 .891.293 1.049.732l1.129 3.13c.405.1.754.203 1.047.308.322.115.736.29 1.249.528l2.63-1.392a1.123 1.123 0 0 1 1.331.21l2.313 2.392c.307.317.394.785.221 1.19L27.46 9.99c.206.375.37.696.493.965.135.293.3.697.499 1.216l2.876 1.231a1.1 1.1 0 0 1 .669 1.08l-.211 3.32a1.104 1.104 0 0 1-.735.968l-2.724.967a9.714 9.714 0 0 1-.246.971c-.101.319-.26.729-.478 1.237l1.369 3.026c.197.436.088.947-.27 1.267l-2.601 2.323a1.125 1.125 0 0 1-1.273.154l-2.682-1.42c-.471.245-.902.441-1.296.587l-1.172.438-1.04 2.88c-.155.43-.563.721-1.024.731L14.573 32a1.116 1.116 0 0 1-1.069-.716l-1.226-3.243c-.563-.197-.974-.35-1.242-.462a16.25 16.25 0 0 1-.989-.47l-3.038 1.3c-.41.175-.886.092-1.21-.212l-2.248-2.11a1.092 1.092 0 0 1-.247-1.254l1.307-2.848a14.756 14.756 0 0 1-.483-1.03 23.506 23.506 0 0 1-.482-1.298l-2.861-.87a1.104 1.104 0 0 1-.786-1.093l.113-3.074c.015-.407.256-.773.627-.951l3.005-1.442c.139-.51.261-.907.369-1.198.107-.287.274-.665.502-1.138L3.31 7.137a1.092 1.092 0 0 1 .24-1.264l2.248-2.122c.32-.302.79-.388 1.199-.22l3.038 1.254c.336-.222.641-.405.915-.549a10.29 10.29 0 0 1 1.319-.554L13.324.736c.158-.44.578-.734 1.05-.734h3.35zm-.786 2.203h-1.777l-.971 2.711a1.11 1.11 0 0 1-.696.677c-.697.231-1.201.431-1.495.586-.312.165-.71.416-1.185.752a1.127 1.127 0 0 1-1.076.12L6.812 5.841 5.67 6.919l1.19 2.513c.144.303.14.654-.01.955-.32.642-.537 1.115-.645 1.406s-.254.787-.431 1.475a1.106 1.106 0 0 1-.593.72l-2.864 1.375-.058 1.567 2.591.788c.345.105.617.369.731.708.257.769.461 1.335.609 1.689.145.348.361.791.646 1.324.161.301.172.66.03.97l-1.202 2.62 1.139 1.069 2.85-1.219c.311-.133.666-.119.965.038.584.307 1.02.52 1.295.636.28.118.816.313 1.593.579.314.107.563.348.68.655l1.131 2.993 1.483-.033.955-2.646a1.11 1.11 0 0 1 .654-.66l1.66-.621c.419-.156.928-.401 1.522-.736.333-.188.74-.193 1.078-.014l2.523 1.336 1.418-1.267-1.239-2.738a1.087 1.087 0 0 1-.002-.895c.292-.653.489-1.144.588-1.458.097-.307.197-.75.295-1.32.067-.392.343-.718.722-.852l2.636-.936.116-1.825-2.593-1.11a1.108 1.108 0 0 1-.603-.63 25.47 25.47 0 0 0-.604-1.511 17.762 17.762 0 0 0-.672-1.271 1.092 1.092 0 0 1-.056-.969l1.16-2.719-1.222-1.264-2.381 1.26a1.123 1.123 0 0 1-1.013.019c-.693-.333-1.214-.562-1.548-.681-.326-.117-.786-.24-1.373-.367a1.108 1.108 0 0 1-.811-.706l-1.069-2.965zm-.901 6.823c3.897 0 7.056 3.124 7.056 6.977s-3.159 6.977-7.056 6.977c-3.897 0-7.056-3.124-7.056-6.977s3.159-6.977 7.056-6.977zm0 2.204c-2.666 0-4.828 2.137-4.828 4.774s2.162 4.774 4.828 4.774c2.666 0 4.828-2.137 4.828-4.774s-2.162-4.774-4.828-4.774z"/>
    </symbol>
    <symbol id="icon-bell" viewBox="0 0 32 32">
      <path d="M28 24a3 3 0 0 1-3-3V11c0-4.288-3.002-7.87-7.017-8.774.009-.074.017-.149.017-.226a2 2 0 1 0-4 0c0 .077.008.152.018.226C10.002 3.13 7 6.712 7 11v10a3 3 0 0 1-3 3 2 2 0 0 0 0 4h8a4 4 0 0 0 8 0h8a2 2 0 1 0 0-4zM16 1a1 1 0 0 1 1 1c0 .02-.007.038-.009.058-.326-.036-.656-.058-.992-.058s-.666.022-.992.058c-.002-.02-.008-.038-.008-.058a1 1 0 0 1 1-1zM8 11a8 8 0 0 1 16 0v6H8v-6zm0 7h16v2H8v-2zm8 13a3 3 0 0 1-3-3h6a3 3 0 0 1-3 3zm12-4H4a1 1 0 0 1 0-2 4 4 0 0 0 4-4h16a4 4 0 0 0 4 4 1 1 0 0 1 0 2z"/>
    </symbol>
    <symbol id="icon-sms" viewBox="0 0 32 32">
      <path fill="#009688" style="fill:var(--color3, #009688)" d="M24.667 26H7.334l-4 4V7.333c0-2.2 1.8-4 4-4h17.333c2.2 0 4 1.8 4 4V22c0 2.2-1.8 4-4 4z"/>
      <path fill="#fff" style="fill:var(--color4, #fff)" d="M14 14.667a2 2 0 1 0 4 0 2 2 0 1 0-4 0zM20.667 14.667a2 2 0 1 0 4 0 2 2 0 1 0-4 0zM7.333 14.667a2 2 0 1 0 4 0 2 2 0 1 0-4 0z"/>
    </symbol>
    <symbol id="icon-canned" viewBox="0 0 32 32">
      <path fill="#ffd15d" style="fill:var(--color5, #ffd15d)" d="M32 16c0 8.837-7.163 16-16 16S0 24.837 0 16 7.163 0 16 0s16 7.163 16 16z"/>
      <path fill="#ffbe00" style="fill:var(--color6, #ffbe00)" d="M17.414 31.937c7.447-.652 13.431-6.406 14.436-13.747l-5.574-5.574-8.444 2.603-12.341 4.795 11.924 11.924z"/>
      <path fill="#26d4cb" style="fill:var(--color7, #26d4cb)" d="M26.667 19.556c0 1.473-4.776 2.667-10.667 2.667S5.333 21.029 5.333 19.556v-6.222h21.333v6.222z"/>
      <path fill="#00d0a4" style="fill:var(--color8, #00d0a4)" d="M15.964 13.333v8.889H16c5.891 0 10.667-1.194 10.667-2.667v-6.222H15.964z"/>
      <path fill="#fffcff" style="fill:var(--color9, #fffcff)" d="M26.667 13.333C26.667 14.806 21.891 16 16 16S5.333 14.806 5.333 13.333c0-1.473 4.776-2.667 10.667-2.667s10.667 1.194 10.667 2.667z"/>
      <path fill="#fffcff" style="fill:var(--color9, #fffcff)" d="M5.333 13.333c0 1.47 4.756 2.662 10.631 2.667v-5.333z"/>
      <path fill="#fcf2cf" style="fill:var(--color10, #fcf2cf)" d="M16 10.667h-.036V16H16c5.891 0 10.667-1.194 10.667-2.667S21.891 10.666 16 10.666z"/>
      <path fill="#cecece" style="fill:var(--color11, #cecece)" d="M25.158 13.333c.044 1.041-4.02 1.886-9.078 1.886s-9.194-.844-9.238-1.886 4.02-1.886 9.078-1.886 9.194.844 9.238 1.886z"/>
      <path fill="#acadac" style="fill:var(--color12, #acadac)" d="M15.964 11.448v3.77l.116.001c5.058 0 9.123-.844 9.078-1.886-.044-1.038-4.156-1.88-9.194-1.885z"/>
      <path fill="#fffcff" style="fill:var(--color9, #fffcff)" d="M22.355 13.333c.079.476-2.702.862-6.212.862s-6.419-.386-6.498-.862 2.702-.862 6.212-.862 6.419.386 6.498.862z"/>
      <path fill="#fcf2cf" style="fill:var(--color10, #fcf2cf)" d="M15.964 12.472v1.723l.179.001c3.51 0 6.291-.386 6.212-.862-.078-.471-2.93-.854-6.391-.862z"/>
      <path fill="#53706c" style="fill:var(--color13, #53706c)" d="M21.072 19.125s-.519 1.511-3.022 1.511-6.044-1.511-6.044-1.511 3.541-1.511 6.044-1.511 3.022 1.511 3.022 1.511z"/>
      <path fill="#446864" style="fill:var(--color14, #446864)" d="M18.05 17.613c-.652 0-1.374.103-2.086.255v2.513c.712.152 1.434.255 2.086.255 2.504 0 3.022-1.511 3.022-1.511s-.519-1.511-3.022-1.511z"/>
      <path fill="#53706c" style="fill:var(--color13, #53706c)" d="m12.005 19.125-1.339-1.347v2.747z"/>
    </symbol>
    <symbol id="icon-mountain" viewBox="0 0 32 32">
      <path fill="#96ede5" style="fill:var(--color15, #96ede5)" d="M32 16c0 8.837-7.163 16-16 16S0 24.837 0 16 7.163 0 16 0s16 7.163 16 16z"/>
      <path fill="#26d4cb" style="fill:var(--color7, #26d4cb)" d="M16 32c8.023 0 14.666-5.906 15.822-13.607L20.775 7.346l-3.841 3.446-11.6 10.541L16.001 32z"/>
      <path fill="#fe5c69" style="fill:var(--color16, #fe5c69)" d="M22.404 11.091a5.121 5.121 0 1 1-10.243 0 5.121 5.121 0 0 1 10.243 0z"/>
      <path fill="#e32531" style="fill:var(--color17, #e32531)" d="m17.283 5.97-.08.002V16.21l.08.002a5.121 5.121 0 0 0 0-10.242z"/>
      <path fill="#935635" style="fill:var(--color18, #935635)" d="m10.455 21.333 8.33-12.496 8.331 12.496z"/>
      <path fill="#804000" style="fill:var(--color19, #804000)" d="M18.819 8.889v12.444h8.296z"/>
      <path fill="#fffcff" style="fill:var(--color9, #fffcff)" d="M15.319 14.036c.992.662 2.183 1.049 3.466 1.049s2.474-.387 3.466-1.049l-3.466-5.198-3.466 5.198z"/>
      <path fill="#fcf2cf" style="fill:var(--color10, #fcf2cf)" d="M18.819 8.889v6.196a6.215 6.215 0 0 0 3.431-1.049l-3.431-5.147z"/>
      <path fill="#b97850" style="fill:var(--color20, #b97850)" d="m5.333 21.333 6.828-10.242 6.828 10.242z"/>
      <path fill="#914e31" style="fill:var(--color21, #914e31)" d="m12.162 11.091-.022.034v10.209h6.851z"/>
      <path fill="#fffcff" style="fill:var(--color9, #fffcff)" d="M9.321 15.352c.813.543 1.79.86 2.841.86s2.028-.317 2.841-.86l-2.841-4.261-2.841 4.261z"/>
      <path fill="#fcf2cf" style="fill:var(--color10, #fcf2cf)" d="m15.002 15.352-2.841-4.261-.022.034v5.087h.022a5.098 5.098 0 0 0 2.841-.86z"/>
    </symbol>
    <symbol id="icon-location" viewBox="0 0 32 32">
      <path fill="#ffa0a9" style="fill:var(--color22, #ffa0a9)" d="M32 16c0 8.837-7.163 16-16 16S0 24.837 0 16 7.163 0 16 0s16 7.163 16 16z"/>
      <path fill="#fe5c69" style="fill:var(--color16, #fe5c69)" d="M31.912 17.682 21.283 7.053h-9.809l-1.544 4.96L16 27.151l4.271 4.271c6.241-1.724 10.951-7.134 11.641-13.741z"/>
      <path fill="#fffcff" style="fill:var(--color9, #fffcff)" d="M16 4.848c-4.106 0-7.434 3.328-7.434 7.434S16 27.151 16 27.151s7.434-10.763 7.434-14.869S20.106 4.848 16 4.848zm0 12.445a5.01 5.01 0 1 1 0-10.02 5.01 5.01 0 0 1 0 10.02z"/>
      <path fill="#fcf2cf" style="fill:var(--color10, #fcf2cf)" d="M23.434 12.283A7.434 7.434 0 0 0 16 4.849l-.036.001v2.424L16 7.273a5.01 5.01 0 1 1 0 10.02l-.036-.001v9.807l.036.052s7.434-10.763 7.434-14.869z"/>
      <path fill="#ffdc58" style="fill:var(--color23, #ffdc58)" d="M14.972 14.323h2.057v2.057h-2.057v-2.057z"/>
      <path fill="#ffbe00" style="fill:var(--color6, #ffbe00)" d="M15.964 14.323h1.064v2.057h-1.064v-2.057z"/>
      <path fill="#36514a" style="fill:var(--color24, #36514a)" d="m16 11.01-3.232 4.04h6.465z"/>
      <path fill="#21332e" style="fill:var(--color25, #21332e)" d="m16 11.01-.036.045v3.996h3.268z"/>
      <path fill="#446864" style="fill:var(--color14, #446864)" d="m16 9.408-2.749 3.437h5.498z"/>
      <path fill="#224a42" style="fill:var(--color26, #224a42)" d="m16 9.408-.036.045v3.392h2.785z"/>
      <path fill="#53706c" style="fill:var(--color13, #53706c)" d="m16 7.862-2.288 2.86h4.576z"/>
      <path fill="#446864" style="fill:var(--color14, #446864)" d="m16 7.862-.036.045v2.815h2.324z"/>
    </symbol>
    <symbol id="icon-canoe" viewBox="0 0 32 32">
      <path fill="#96ede5" style="fill:var(--color15, #96ede5)" d="M32 16c0 8.837-7.163 16-16 16S0 24.837 0 16 7.163 0 16 0s16 7.163 16 16z"/>
      <path fill="#26d4cb" style="fill:var(--color7, #26d4cb)" d="M16.608 31.987c7.615-.285 13.868-5.89 15.15-13.207l-4.742-4.742-2.034 4.575-.835.067-3.648-3.648-4.412 4.29-5.392.429-5.713-5.713.571 6.122 5.398 5.398-.508.264 6.164 6.164z"/>
      <path fill="#ffdc58" style="fill:var(--color23, #ffdc58)" d="m27.551 16.708-.534-2.669a3.62 3.62 0 0 1-3.369 2.289H8.352a3.62 3.62 0 0 1-3.369-2.289l-.534 2.669a3.737 3.737 0 0 0 3.664 4.469h15.774a3.735 3.735 0 0 0 3.663-4.469z"/>
      <path fill="#f9b54c" style="fill:var(--color27, #f9b54c)" d="m27.551 16.708-.534-2.669a3.62 3.62 0 0 1-3.369 2.289h-7.684v4.849h7.923a3.735 3.735 0 0 0 3.663-4.469z"/>
      <path fill="#53706c" style="fill:var(--color13, #53706c)" d="M4.932 19.399h22.135a3.707 3.707 0 0 0 .552-1.778H4.38c.03.644.227 1.252.552 1.778z"/>
      <path fill="#446864" style="fill:var(--color14, #446864)" d="M27.619 17.621H15.964v1.778h11.104a3.718 3.718 0 0 0 .552-1.778z"/>
      <path fill="#53706c" style="fill:var(--color13, #53706c)" d="m10.444 25.823-.735-.735a1.85 1.85 0 0 1 .356-2.895l1.836-1.102a1.85 1.85 0 0 1 2.538 2.538l-1.102 1.837a1.85 1.85 0 0 1-2.895.356z"/>
      <path fill="#446864" style="fill:var(--color14, #446864)" d="m14.162 21.37-.035-.032-4.084 4.084.4.401a1.85 1.85 0 0 0 2.895-.356l1.102-1.837a1.85 1.85 0 0 0-.278-2.26z"/>
      <path fill="#224a42" style="fill:var(--color26, #224a42)" d="M12.729 23.127a.324.324 0 0 1-.229-.552l7.542-7.542a.324.324 0 0 1 .457.457l-7.542 7.542a.323.323 0 0 1-.229.095z"/>
      <path fill="#224a42" style="fill:var(--color26, #224a42)" d="M12.5 22.575a.323.323 0 0 0-.03.421l7.993-7.993a.323.323 0 0 0-.421.03z"/>
      <path fill="#1b3a34" style="fill:var(--color28, #1b3a34)" d="m20.463 15.003-7.993 7.993a.323.323 0 0 0 .488.037l7.542-7.542a.324.324 0 0 0-.037-.487z"/>
    </symbol>
  </defs>
</svg>
